<svg width="1110" height="355" viewBox="0 0 1110 355" fill="none" xmlns="http://www.w3.org/2000/svg">
<path d="M1108.79 85C1108.79 429.741 860.738 709 555 709C249.262 709 1.21498 429.741 1.21498 85C1.21498 -259.741 249.262 -539 555 -539C860.738 -539 1108.79 -259.741 1108.79 85Z" stroke="white" stroke-opacity="0.13" stroke-width="2" style="mix-blend-mode:overlay"/>
<path d="M877.994 124C877.994 325.147 733.276 488 555 488C376.724 488 232.006 325.147 232.006 124C232.006 -77.147 376.724 -240 555 -240C733.276 -240 877.994 -77.147 877.994 124Z" stroke="white" stroke-opacity="0.13" stroke-width="2" style="mix-blend-mode:overlay"/>
<path d="M737.745 124C737.745 237.886 655.818 330 555 330C454.182 330 372.255 237.886 372.255 124C372.255 10.114 454.182 -82 555 -82C655.818 -82 737.745 10.114 737.745 124Z" stroke="white" stroke-opacity="0.13" stroke-width="2" style="mix-blend-mode:overlay"/>
<path d="M595.72 124C595.72 149.52 577.38 170 555 170C532.62 170 514.28 149.52 514.28 124C514.28 98.4795 532.62 78 555 78C577.38 78 595.72 98.4795 595.72 124Z" stroke="white" stroke-opacity="0.13" stroke-width="2" style="mix-blend-mode:overlay"/>
<path d="M652.53 124C652.53 184.867 608.756 234 555 234C501.244 234 457.47 184.867 457.47 124C457.47 63.1333 501.244 14 555 14C608.756 14 652.53 63.1333 652.53 124Z" stroke="white" stroke-opacity="0.13" stroke-width="2" style="mix-blend-mode:overlay"/>
</svg>
